<svg width="64" height="64" viewBox="0 0 64 64" fill="none" xmlns="http://www.w3.org/2000/svg">
    <!-- Eero Router Base -->
    <ellipse cx="32" cy="45" rx="20" ry="8" fill="#1e293b"/>
    <ellipse cx="32" cy="43" rx="18" ry="6" fill="#334155"/>
    
    <!-- Router Body -->
    <ellipse cx="32" cy="35" rx="16" ry="20" fill="#f8fafc" stroke="#e2e8f0" stroke-width="2"/>
    
    <!-- Eero Logo/LED -->
    <circle cx="32" cy="25" r="4" fill="#22c55e"/>
    <circle cx="32" cy="25" r="2" fill="#ffffff" opacity="0.8"/>
    
    <!-- Status Indicators -->
    <circle cx="32" cy="35" r="1.5" fill="#3b82f6"/>
    <circle cx="32" cy="40" r="1" fill="#10b981"/>
    
    <!-- WiFi Signal Waves -->
    <path d="M32 15 Q27 18 27 25 Q27 32 32 35 Q37 32 37 25 Q37 18 32 15" 
          fill="none" stroke="#3b82f6" stroke-width="1" opacity="0.6"/>
    <path d="M32 10 Q24 14 24 25 Q24 36 32 42 Q40 36 40 25 Q40 14 32 10" 
          fill="none" stroke="#3b82f6" stroke-width="1" opacity="0.4"/>
    <path d="M32 5 Q21 10 21 25 Q21 40 32 48 Q43 40 43 25 Q43 10 32 5" 
          fill="none" stroke="#3b82f6" stroke-width="1" opacity="0.2"/>
    
    <!-- Ports (hidden underneath) -->
    <rect x="26" y="44" width="3" height="2" rx="0.5" fill="#0f172a"/>
    <rect x="30" y="44" width="3" height="2" rx="0.5" fill="#0f172a"/>
    <rect x="34" y="44" width="3" height="2" rx="0.5" fill="#0f172a"/>
    
    <!-- Eero Text -->
    <text x="32" y="58" text-anchor="middle" font-family="Arial" font-size="8" font-weight="bold" fill="#3b82f6">eero</text>
</svg>
